<svg width="540" height="510" viewBox="0 0 540 510" fill="none" xmlns="http://www.w3.org/2000/svg">
<rect width="540" height="510" rx="40" fill="#09090B"/>
<mask id="mask0_37_615" style="mask-type:alpha" maskUnits="userSpaceOnUse" x="50" y="50" width="440" height="410">
<rect x="50" y="50" width="440" height="410" fill="#D9D9D9"/>
</mask>
<g mask="url(#mask0_37_615)">
<path d="M59.144 78.2672C53.8174 65.1183 63.4939 50.7579 77.6808 50.7579L173.247 50.758C181.531 50.758 188.957 55.865 191.922 63.6003L334.591 435.842C339.611 448.939 329.942 463 315.916 463L228.477 463C220.331 463 212.998 458.059 209.94 450.509L59.144 78.2672Z" fill="url(#paint0_linear_37_615)"/>
<path d="M236.899 77.9058C232.096 64.8501 241.758 50.9999 255.669 50.9999H461.825C475.598 50.9999 485.249 64.5959 480.705 77.5977L457.641 143.598C454.836 151.624 447.263 157 438.761 157H279.952C271.57 157 264.077 151.773 261.182 143.906L236.899 77.9058Z" fill="url(#paint1_linear_37_615)"/>
<path d="M290.1 220.006C285.211 206.933 294.876 193 308.833 193H411.821C425.595 193 435.246 206.598 430.701 219.6L401.684 302.6C398.879 310.625 391.306 316 382.805 316H339.873C331.53 316 324.063 310.821 321.14 303.006L290.1 220.006Z" fill="url(#paint2_linear_37_615)"/>
<g filter="url(#filter0_f_37_615)">
<path d="M236.439 182.796C231.903 171.217 240.441 158.702 252.877 158.702V158.702C260.181 158.702 266.731 163.2 269.354 170.017L373.226 439.977C377.455 450.967 369.343 462.779 357.568 462.779V462.779C350.664 462.779 344.464 458.55 341.946 452.122L236.439 182.796Z" fill="url(#paint3_linear_37_615)"/>
</g>
</g>
<defs>
<filter id="filter0_f_37_615" x="223.705" y="147.202" width="162.156" height="327.077" filterUnits="userSpaceOnUse" color-interpolation-filters="sRGB">
<feFlood flood-opacity="0" result="BackgroundImageFix"/>
<feBlend mode="normal" in="SourceGraphic" in2="BackgroundImageFix" result="shape"/>
<feGaussianBlur stdDeviation="5.75" result="effect1_foregroundBlur_37_615"/>
</filter>
<linearGradient id="paint0_linear_37_615" x1="98.2299" y1="59.86" x2="305.806" y2="425.302" gradientUnits="userSpaceOnUse">
<stop stop-color="#D0D0D0"/>
<stop offset="1" stop-color="#FAFAFA"/>
</linearGradient>
<linearGradient id="paint1_linear_37_615" x1="267.283" y1="157" x2="490.169" y2="124.454" gradientUnits="userSpaceOnUse">
<stop stop-color="#D5D5D5"/>
<stop offset="1" stop-color="#F9F9F9"/>
</linearGradient>
<linearGradient id="paint2_linear_37_615" x1="298.216" y1="254.5" x2="433.267" y2="254.5" gradientUnits="userSpaceOnUse">
<stop stop-color="#FAFAFA"/>
<stop offset="1" stop-color="#BAB8B7"/>
</linearGradient>
<linearGradient id="paint3_linear_37_615" x1="267" y1="204" x2="364.084" y2="469.503" gradientUnits="userSpaceOnUse">
<stop stop-color="#09090B"/>
<stop offset="1" stop-color="white" stop-opacity="0.24"/>
</linearGradient>
</defs>
</svg>
