<svg width="440" height="410" viewBox="0 0 440 410" fill="none" xmlns="http://www.w3.org/2000/svg">
<g clip-path="url(#clip0_37_589)">
<mask id="mask0_37_589" style="mask-type:alpha" maskUnits="userSpaceOnUse" x="0" y="0" width="440" height="410">
<rect width="440" height="410" fill="#D9D9D9"/>
</mask>
<g mask="url(#mask0_37_589)">
<path d="M9.144 28.2672C3.81737 15.1183 13.4939 0.757875 27.6808 0.757888L123.247 0.757975C131.531 0.757982 138.957 5.86497 141.922 13.6003L284.591 385.842C289.611 398.939 279.942 413 265.916 413L178.477 413C170.331 413 162.998 408.059 159.94 400.509L9.144 28.2672Z" fill="url(#paint0_linear_37_589)"/>
<path d="M186.899 27.9058C182.096 14.8501 191.758 0.999878 205.669 0.999878H411.825C425.598 0.999878 435.249 14.5959 430.705 27.5977L407.641 93.5977C404.836 101.624 397.263 107 388.761 107H229.952C221.57 107 214.077 101.773 211.182 93.9058L186.899 27.9058Z" fill="url(#paint1_linear_37_589)"/>
<path d="M240.1 170.006C235.211 156.933 244.876 143 258.833 143H361.821C375.595 143 385.246 156.598 380.701 169.6L351.684 252.6C348.879 260.625 341.306 266 332.805 266H289.873C281.53 266 274.063 260.821 271.14 253.006L240.1 170.006Z" fill="url(#paint2_linear_37_589)"/>
<g filter="url(#filter0_f_37_589)">
<path d="M186.439 132.796C181.903 121.217 190.441 108.702 202.877 108.702V108.702C210.181 108.702 216.731 113.2 219.354 120.017L323.226 389.977C327.455 400.967 319.343 412.779 307.568 412.779V412.779C300.664 412.779 294.464 408.55 291.946 402.122L186.439 132.796Z" fill="url(#paint3_linear_37_589)"/>
</g>
</g>
</g>
<defs>
<filter id="filter0_f_37_589" x="173.705" y="97.202" width="162.156" height="327.077" filterUnits="userSpaceOnUse" color-interpolation-filters="sRGB">
<feFlood flood-opacity="0" result="BackgroundImageFix"/>
<feBlend mode="normal" in="SourceGraphic" in2="BackgroundImageFix" result="shape"/>
<feGaussianBlur stdDeviation="5.75" result="effect1_foregroundBlur_37_589"/>
</filter>
<linearGradient id="paint0_linear_37_589" x1="48.2299" y1="9.86002" x2="255.806" y2="375.302" gradientUnits="userSpaceOnUse">
<stop stop-color="#4E4C4C"/>
<stop offset="1" stop-color="#030A03"/>
</linearGradient>
<linearGradient id="paint1_linear_37_589" x1="217.283" y1="107" x2="440.169" y2="74.4535" gradientUnits="userSpaceOnUse">
<stop stop-color="#40403F"/>
<stop offset="1" stop-color="#0B120B"/>
</linearGradient>
<linearGradient id="paint2_linear_37_589" x1="248.216" y1="204.5" x2="383.267" y2="204.5" gradientUnits="userSpaceOnUse">
<stop stop-color="#0C120C"/>
<stop offset="1" stop-color="#474645"/>
</linearGradient>
<linearGradient id="paint3_linear_37_589" x1="217" y1="154" x2="314.084" y2="419.503" gradientUnits="userSpaceOnUse">
<stop stop-color="#FAFAFA"/>
<stop offset="1" stop-color="#0C120C" stop-opacity="0.46"/>
</linearGradient>
<clipPath id="clip0_37_589">
<rect width="440" height="410" rx="8" fill="white"/>
</clipPath>
</defs>
</svg>
